<svg width="500" height="426" viewBox="0 0 500 426" fill="none" xmlns="http://www.w3.org/2000/svg">
<g clip-path="url(#clip0_162_6)">
<path d="M495.536 8.6287C498.127 11.7379 499.113 16.1795 498.469 21.9271C497.824 27.6754 495.558 34.6392 491.763 42.6659C484.175 58.7148 470.556 78.8479 451.975 101.719C414.82 147.45 357.926 204.002 290.099 260.524C222.272 317.045 156.385 362.806 104.703 391.103C78.8558 405.255 56.5966 415.02 39.4423 419.589C30.8629 421.874 23.6045 422.847 17.8342 422.444C12.0648 422.041 7.87365 420.271 5.28275 417.162C2.69184 414.053 1.7066 409.611 2.35063 403.863C2.99475 398.115 5.26127 391.151 9.05632 383.125C16.6444 367.076 30.2632 346.943 48.8447 324.072C85.9995 278.34 142.893 221.788 210.72 165.267C278.548 108.746 344.434 62.9846 396.116 34.687C421.963 20.5351 444.223 10.7707 461.377 6.20158C469.956 3.91642 477.215 2.94302 482.985 3.34624C488.754 3.74937 492.946 5.51952 495.536 8.6287Z" stroke="url(#paint0_linear_162_6)" stroke-width="1.54321"/>
<path d="M423.248 104.728L427.329 124.793L444.873 114.234L433.571 131.308L453.442 136.247L433.378 140.329L443.936 157.873L426.862 146.571L421.923 166.442L417.841 146.377L400.297 156.936L411.599 139.862L391.728 134.922L411.793 130.841L401.234 113.297L418.309 124.599L423.248 104.728Z" fill="white"/>
</g>
<defs>
<linearGradient id="paint0_linear_162_6" x1="219.99" y1="178.824" x2="285.563" y2="264.283" gradientUnits="userSpaceOnUse">
<stop stop-color="white" stop-opacity="0"/>
<stop offset="1" stop-color="white" stop-opacity="0.8"/>
</linearGradient>
<clipPath id="clip0_162_6">
<rect width="500" height="425.926" fill="white" transform="translate(0 0.0370331)"/>
</clipPath>
</defs>
</svg>
