<svg width="324" height="276" viewBox="0 0 324 276" fill="none" xmlns="http://www.w3.org/2000/svg">
<g clip-path="url(#clip0_116_6)">
<path d="M321.107 5.5674C322.786 7.58215 323.425 10.4603 323.007 14.1847C322.59 17.9097 321.121 22.4222 318.662 27.6235C313.745 38.0232 304.92 51.0694 292.879 65.8897C268.803 95.5237 231.936 132.17 187.984 168.795C144.032 205.421 101.337 235.074 67.847 253.411C51.0981 262.581 36.6742 268.909 25.5582 271.87C19.9987 273.35 15.2953 273.981 11.5561 273.72C7.81753 273.459 5.1017 272.312 3.42279 270.297C1.74388 268.282 1.10544 265.404 1.52278 261.679C1.94017 257.954 3.40887 253.442 5.86806 248.241C10.7851 237.841 19.6101 224.795 31.6509 209.974C55.7273 180.34 92.5943 143.695 136.546 107.069C180.498 70.4432 223.193 40.79 256.683 22.4532C273.432 13.2827 287.856 6.95542 298.972 3.99464C304.531 2.51385 309.235 1.88309 312.974 2.14436C316.712 2.40558 319.428 3.55265 321.107 5.5674Z" stroke="url(#paint0_linear_116_6)"/>
<path d="M274.264 67.8397L276.909 80.8416L288.277 73.9998L280.954 85.0638L293.83 88.2644L280.828 90.9093L287.67 102.278L276.606 94.954L273.405 107.83L270.76 94.8285L259.392 101.67L266.716 90.6063L253.839 87.4058L266.841 84.7608L259.999 73.3926L271.063 80.7161L274.264 67.8397Z" fill="white"/>
</g>
<defs>
<linearGradient id="paint0_linear_116_6" x1="142.553" y1="115.854" x2="185.045" y2="171.231" gradientUnits="userSpaceOnUse">
<stop stop-color="white" stop-opacity="0"/>
<stop offset="1" stop-color="white" stop-opacity="0.8"/>
</linearGradient>
<clipPath id="clip0_116_6">
<rect width="324" height="276" fill="white"/>
</clipPath>
</defs>
</svg>
