<svg width="371" height="328" viewBox="0 0 371 328" fill="none" xmlns="http://www.w3.org/2000/svg">
<path d="M279 112L281.923 124.942L293.142 117.858L286.058 129.077L299 132L286.058 134.923L293.142 146.142L281.923 139.058L279 152L276.077 139.058L264.858 146.142L271.942 134.923L259 132L271.942 129.077L264.858 117.858L276.077 124.942L279 112Z" fill="white"/>
<path d="M344.107 31.5675C345.786 33.5822 346.425 36.4604 346.007 40.1848C345.59 43.9098 344.121 48.4223 341.662 53.6236C336.745 64.0233 327.92 77.0695 315.879 91.8898C291.803 121.524 254.936 158.17 210.984 194.795C167.032 231.421 124.337 261.074 90.847 279.411C74.0981 288.582 59.6742 294.909 48.5582 297.87C42.9987 299.35 38.2953 299.981 34.5561 299.72C30.8175 299.459 28.1017 298.312 26.4228 296.297C24.7439 294.282 24.1054 291.404 24.5228 287.68C24.9402 283.955 26.4089 279.442 28.8681 274.241C33.7851 263.841 42.6101 250.795 54.6509 235.975C78.7273 206.341 115.594 169.695 159.546 133.069C203.498 96.4433 246.193 66.7901 279.683 48.4532C296.432 39.2828 310.856 32.9555 321.972 29.9947C327.531 28.5139 332.235 27.8832 335.974 28.1445C339.712 28.4057 342.428 29.5527 344.107 31.5675Z" stroke="url(#paint0_linear_26_228)"/>
<defs>
<linearGradient id="paint0_linear_26_228" x1="165.553" y1="141.854" x2="208.045" y2="197.231" gradientUnits="userSpaceOnUse">
<stop stop-color="white" stop-opacity="0"/>
<stop offset="1" stop-color="white"/>
</linearGradient>
</defs>
</svg>
