<svg width="63" height="45" viewBox="0 0 63 45" fill="none" xmlns="http://www.w3.org/2000/svg">
<path d="M10.22 14.322L2.394 6.384L2.786 6.482L2.814 14H1.456V3.57H1.526L9.268 11.536L8.946 11.466L8.918 3.878H10.262V14.322H10.22ZM13.1728 3.878H19.7528V5.18H14.5308V8.26H19.1928V9.562H14.5308V12.698H19.9488V14H13.1728V3.878ZM21.4656 3.878H23.1876L29.7816 14H28.0456L21.4656 3.878ZM21.3256 14L24.8396 8.498L25.4976 9.814L23.0056 14H21.3256ZM25.5396 8.008L28.0036 3.878H29.6416L26.2676 9.142L25.5396 8.008ZM30.9699 3.878H37.6899V5.18H34.9739V14H33.6159V5.18H30.9699V3.878Z" fill="#FFD585"/>
<path d="M10.22 30.678L2.394 38.616L2.786 38.518L2.814 31H1.456V41.43H1.526L9.268 33.464L8.946 33.534L8.918 41.122H10.262V30.678H10.22ZM13.1728 41.122H19.7528V39.82H14.5308V36.74H19.1928V35.438H14.5308V32.302H19.9488V31H13.1728V41.122ZM21.4656 41.122H23.1876L29.7816 31H28.0456L21.4656 41.122ZM21.3256 31L24.8396 36.502L25.4976 35.186L23.0056 31H21.3256ZM25.5396 36.992L28.0036 41.122H29.6416L26.2676 35.858L25.5396 36.992ZM30.9699 41.122H37.6899V39.82H34.9739V31H33.6159V39.82H30.9699V41.122Z" fill="#FFD585" fill-opacity="0.4"/>
<path d="M2 22L62 22" stroke="#FFD585" stroke-width="0.5"/>
<path d="M51.4639 13C51.4639 13 54.0204 16.4633 56.0736 18.2683C58.1629 20.1049 62.0005 22.2195 62.0005 22.2195" stroke="#FFD585" stroke-width="0.5"/>
<path d="M51.4639 31.439C51.4639 31.439 54.0204 27.9756 56.0736 26.1707C58.1629 24.334 62.0005 22.2195 62.0005 22.2195" stroke="#FFD585" stroke-width="0.5"/>
</svg>
